<svg xmlns="http://www.w3.org/2000/svg" version="1.1" xmlns:xlink="http://www.w3.org/1999/xlink" xmlns:svgjs="http://svgjs.dev/svgjs" width="2000" height="843" viewBox="0 0 2000 843"><g transform="matrix(1,0,0,1,-1.2121212121212466,0.6086370944914847)"><svg viewBox="0 0 396 167" data-background-color="#ffffff" preserveAspectRatio="xMidYMid meet" height="843" width="2000" xmlns="http://www.w3.org/2000/svg" xmlns:xlink="http://www.w3.org/1999/xlink"><g id="tight-bounds" transform="matrix(1,0,0,1,0.2400000000000091,-0.12057223580080745)"><svg viewBox="0 0 395.52 167.24114447160161" height="167.24114447160161" width="395.52"><g><svg viewBox="0 0 395.52 167.24114447160161" height="167.24114447160161" width="395.52"><g transform="matrix(1,0,0,1,0,103.36173666541049)"><svg viewBox="0 0 395.52 63.87940780619111" height="63.87940780619111" width="395.52"><g id="textblocktransform"><svg viewBox="0 0 395.52 63.87940780619111" height="63.87940780619111" width="395.52" id="textblock"><g><svg viewBox="0 0 395.52 63.87940780619111" height="63.87940780619111" width="395.52"><g transform="matrix(1,0,0,1,0,0)"><svg width="395.52" viewBox="0.7 -35.25 222.88000000000002 36" height="63.87940780619111" data-palette-color="#f6f3f3"><path d="M28.5-34.55L34.4-34.55 29.55 0 21.2 0 17.5-27.8 13.65 0 5.45 0 0.7-34.55 6.85-34.55 10.05-5.1 14.2-34.55 20.95-34.55 25-5.1 28.5-34.55ZM56.8-13.85Q56.8-13.4 56.65-11.3L56.65-11.3 43-11.3Q43.2-7.2 44.42-5.58 45.65-3.95 47.9-3.95L47.9-3.95Q49.45-3.95 50.7-4.48 51.95-5 53.4-6.15L53.4-6.15 55.95-2.65Q52.45 0.75 47.55 0.75L47.55 0.75Q42.35 0.75 39.57-2.85 36.8-6.45 36.8-13L36.8-13Q36.8-19.55 39.45-23.35 42.1-27.15 46.95-27.15L46.95-27.15Q51.6-27.15 54.2-23.78 56.8-20.4 56.8-13.85L56.8-13.85ZM50.8-15.3L50.8-15.65Q50.8-19.4 49.9-21.13 49-22.85 47-22.85L47-22.85Q45.15-22.85 44.17-21.18 43.2-19.5 43-15.3L43-15.3 50.8-15.3ZM82.59-35.25Q85.24-35.25 87.27-34.38 89.29-33.5 91.19-31.7L91.19-31.7 88.14-28.05Q86.84-29.25 85.62-29.83 84.39-30.4 82.94-30.4L82.94-30.4Q79.94-30.4 78.24-27.4 76.54-24.4 76.54-17.35L76.54-17.35Q76.54-10.4 78.24-7.38 79.94-4.35 83.04-4.35L83.04-4.35Q84.59-4.35 85.74-4.98 86.89-5.6 88.44-6.9L88.44-6.9 91.49-3.4Q89.89-1.6 87.64-0.43 85.39 0.75 82.59 0.75L82.59 0.75Q76.74 0.75 73.29-3.8 69.84-8.35 69.84-17.35L69.84-17.35Q69.84-23.3 71.49-27.3 73.14-31.3 76.02-33.27 78.89-35.25 82.59-35.25L82.59-35.25ZM104.14-27.15Q109.14-27.15 111.92-23.65 114.69-20.15 114.69-13.25L114.69-13.25Q114.69-6.65 111.89-2.95 109.09 0.75 104.14 0.75L104.14 0.75Q99.19 0.75 96.39-2.88 93.59-6.5 93.59-13.25L93.59-13.25Q93.59-19.95 96.39-23.55 99.19-27.15 104.14-27.15L104.14-27.15ZM104.14-22.5Q101.99-22.5 100.99-20.38 99.99-18.25 99.99-13.25L99.99-13.25Q99.99-8.2 100.99-6.08 101.99-3.95 104.14-3.95L104.14-3.95Q106.29-3.95 107.29-6.08 108.29-8.2 108.29-13.25L108.29-13.25Q108.29-18.3 107.29-20.4 106.29-22.5 104.14-22.5L104.14-22.5ZM131.59-27.15Q134.44-27.15 136.09-25.1 137.74-23.05 137.74-19.6L137.74-19.6 137.74 0 131.59 0 131.59-18.9Q131.59-20.8 131.06-21.63 130.54-22.45 129.54-22.45L129.54-22.45Q127.44-22.45 125.39-18.5L125.39-18.5 125.39 0 119.24 0 119.24-26.45 124.59-26.45 125.04-23Q126.39-25.1 127.91-26.13 129.44-27.15 131.59-27.15L131.59-27.15ZM155.63-27.15Q158.49-27.15 160.13-25.1 161.78-23.05 161.78-19.6L161.78-19.6 161.78 0 155.63 0 155.63-18.9Q155.63-20.8 155.11-21.63 154.59-22.45 153.59-22.45L153.59-22.45Q151.49-22.45 149.44-18.5L149.44-18.5 149.44 0 143.28 0 143.28-26.45 148.63-26.45 149.09-23Q150.44-25.1 151.96-26.13 153.49-27.15 155.63-27.15L155.63-27.15ZM186.18-13.85Q186.18-13.4 186.03-11.3L186.03-11.3 172.38-11.3Q172.58-7.2 173.81-5.58 175.03-3.95 177.28-3.95L177.28-3.95Q178.83-3.95 180.08-4.48 181.33-5 182.78-6.15L182.78-6.15 185.33-2.65Q181.83 0.75 176.93 0.75L176.93 0.75Q171.73 0.75 168.96-2.85 166.18-6.45 166.18-13L166.18-13Q166.18-19.55 168.83-23.35 171.48-27.15 176.33-27.15L176.33-27.15Q180.98-27.15 183.58-23.78 186.18-20.4 186.18-13.85L186.18-13.85ZM180.18-15.3L180.18-15.65Q180.18-19.4 179.28-21.13 178.38-22.85 176.38-22.85L176.38-22.85Q174.53-22.85 173.56-21.18 172.58-19.5 172.38-15.3L172.38-15.3 180.18-15.3ZM199.98-27.15Q202.13-27.15 203.88-26.43 205.63-25.7 207.23-24.15L207.23-24.15 204.58-20.65Q203.48-21.55 202.51-21.98 201.53-22.4 200.38-22.4L200.38-22.4Q198.13-22.4 196.98-20.28 195.83-18.15 195.83-13.1L195.83-13.1Q195.83-8.2 197.01-6.2 198.18-4.2 200.38-4.2L200.38-4.2Q201.48-4.2 202.38-4.6 203.28-5 204.48-5.85L204.48-5.85 207.23-2.3Q204.03 0.75 200.08 0.75L200.08 0.75Q194.98 0.75 192.16-2.73 189.33-6.2 189.33-13L189.33-13Q189.33-17.4 190.63-20.6 191.93-23.8 194.36-25.48 196.78-27.15 199.98-27.15L199.98-27.15ZM221.43-5L223.58-1.2Q221.13 0.75 217.83 0.75L217.83 0.75Q214.38 0.75 212.58-1.23 210.78-3.2 210.78-6.6L210.78-6.6 210.78-22 207.68-22 207.68-26.45 210.78-26.45 210.78-32.3 216.93-33.05 216.93-26.45 221.93-26.45 221.33-22 216.93-22 216.93-6.6Q216.93-4.2 218.98-4.2L218.98-4.2Q219.63-4.2 220.13-4.38 220.63-4.55 221.43-5L221.43-5Z" opacity="1" transform="matrix(1,0,0,1,0,0)" fill="#f6f3f3" class="wordmark-text-0" data-fill-palette-color="primary" id="text-0"></path></svg></g></svg></g></svg></g></svg></g><g transform="matrix(1,0,0,1,150.67661781965006,0)"><svg viewBox="0 0 94.16676436069986 88.28134158815612" height="88.28134158815612" width="94.16676436069986"><g><svg xmlns="http://www.w3.org/2000/svg" xmlns:xlink="http://www.w3.org/1999/xlink" version="1.1" viewBox="0 3 96 90" x="0" y="0" height="88.28134158815612" width="94.16676436069986" class="icon-icon-0" data-fill-palette-color="accent" id="icon-0"><path d="M46 73h-0.6c-7.668 0-14.46-6.7-15.308-14.716-3.544-1.184-6.088-5.496-6.088-9.284v-4c0-2.608 1.672-4.832 4-5.656v-5.144c0-6.916 3.864-11.604 9.652-11.792 1.088-0.38 2.224-0.8 3.38-1.244 4.224-1.592 8.596-3.244 12.536-3.244 6.92 0 10.432 5.076 10.432 15.08v6.784c1.584 0.912 4 2.716 4 5.216v4c0 3.628-2.976 8.084-6.692 9.292-0.856 8.008-7.644 14.708-15.312 14.708zM53.564 21.92c-3.208 0-7.232 1.52-11.124 2.976-1.304 0.492-2.58 0.972-3.796 1.396-0.208 0.072-0.424 0.1-0.644 0.1-4.424 0-6 4.04-6 7.8v6.8c0 1.1-0.896 2-2 2s-2 0.9-2 2v4c0 2.396 1.98 5.592 4 5.592 1.104 0 2 0.904 2 2 0 6.604 5.328 12.408 11.4 12.408h0.6c6.072 0 11.4-5.792 11.4-12.408 0-1.096 0.9-2 2-2 2.024 0 4.6-3.132 4.6-5.592v-4c-0.084-0.472-1.536-1.6-2.816-2.176-0.72-0.32-1.184-1.036-1.184-1.824v-8c0-11.072-4.508-11.072-6.436-11.072z" fill="#0f77dd" data-fill-palette-color="accent"></path><path d="M80.188 93h-68.188c-1.104 0-2-0.896-2-2 0-12.544 9.54-22 22.188-22 1.104 0 2 0.896 2 2s-0.896 2-2 2c-9.852 0-17.18 6.616-18.092 16h64c-0.916-9.384-8.244-16-18.092-16-1.1 0-2-0.896-2-2s0.9-2 2-2c12.648 0 22.188 9.456 22.188 22-0.004 1.104-0.9 2-2.004 2z" fill="#0f77dd" data-fill-palette-color="accent"></path><path d="M2 42.992c-1.104 0-2-0.896-2-2 0-6.616 5.384-12 12-12 1.104 0 2 0.896 2 2s-0.896 2-2 2c-4.412 0-8 3.584-8 8 0 1.104-0.896 2-2 2z" fill="#0f77dd" data-fill-palette-color="accent"></path><path d="M94 42.992c-1.1 0-2-0.896-2-2 0-4.416-3.584-8-8-8-1.1 0-2-0.896-2-2s0.9-2 2-2c6.616 0 12 5.384 12 12 0 1.104-0.9 2-2 2z" fill="#0f77dd" data-fill-palette-color="accent"></path><path d="M20 31c-6.452 0-10-13.52-10-18 0-5.516 4.488-10 10-10s10 4.484 10 10c0 4.48-3.548 18-10 18zM20 7c-3.308 0-6 2.692-6 6 0 4.7 3.648 14 6 14s6-9.3 6-14c0-3.308-2.692-6-6-6z" fill="#0f77dd" data-fill-palette-color="accent"></path><path d="M76 31c-6.452 0-10-13.52-10-18 0-5.516 4.488-10 10-10s10 4.484 10 10c0 4.48-3.548 18-10 18zM76 7c-3.308 0-6 2.692-6 6 0 4.7 3.648 14 6 14s6-9.3 6-14c0-3.308-2.692-6-6-6z" fill="#0f77dd" data-fill-palette-color="accent"></path></svg></g></svg></g><g></g></svg></g><defs></defs></svg><rect width="395.52" height="167.24114447160161" fill="none" stroke="none" visibility="hidden"></rect></g></svg></g></svg>